<?xml version="1.0" standalone="no"?>
<!DOCTYPE svg PUBLIC "-//W3C//DTD SVG 20010904//EN"
 "http://www.w3.org/TR/2001/REC-SVG-20010904/DTD/svg10.dtd">
<svg version="1.0" xmlns="http://www.w3.org/2000/svg"
 width="500.000000pt" height="500.000000pt" viewBox="0 0 500.000000 500.000000"
 preserveAspectRatio="xMidYMid meet">

<g transform="translate(0.000000,500.000000) scale(0.100000,-0.100000)"
fill="#000000" stroke="none">
<path d="M1815 3880 c-184 -20 -386 -93 -542 -195 -117 -77 -284 -244 -357
-358 -152 -234 -213 -453 -203 -732 8 -197 47 -356 130 -520 136 -271 402
-504 695 -609 193 -69 456 -87 663 -45 385 78 701 324 875 684 255 526 104
1160 -360 1519 -110 85 -183 127 -301 174 -182 72 -407 103 -600 82z m430
-104 c105 -27 268 -100 363 -163 70 -46 220 -189 277 -263 218 -285 293 -676
196 -1025 -103 -370 -405 -685 -766 -798 -571 -179 -1171 84 -1425 625 -163
348 -138 761 67 1100 169 280 461 481 789 543 126 23 372 14 499 -19z"/>
<path d="M1584 3566 l-34 -34 0 -507 0 -507 34 -34 34 -34 302 0 302 0 34 34
34 34 0 210 0 211 38 -16 c59 -26 176 -23 234 5 62 31 118 87 148 148 33 67
34 178 1 246 -28 57 -96 122 -159 151 -57 26 -158 28 -216 3 -21 -9 -40 -16
-42 -16 -2 0 -4 16 -4 36 0 28 -8 44 -34 70 l-34 34 -302 0 -302 0 -34 -34z
m650 -27 c39 -46 36 -96 -8 -138 -52 -50 -79 -122 -80 -208 -1 -67 -3 -74 -33
-105 -51 -53 -49 -56 62 -74 22 -4 50 -16 63 -27 21 -20 22 -27 22 -184 l0
-163 -340 0 -340 0 0 431 c0 440 1 457 39 486 12 9 93 12 303 13 l286 0 26
-31z m320 -104 c93 -45 145 -130 146 -235 0 -153 -107 -259 -260 -260 -74 0
-148 29 -189 74 -17 18 -39 28 -73 32 l-49 7 27 28 c24 26 27 35 25 96 -2 81
9 123 46 175 52 76 124 110 223 105 37 -2 82 -11 104 -22z m-298 -867 c-14
-87 -25 -90 -354 -86 -261 3 -272 4 -292 24 -12 12 -24 40 -27 63 l-6 41 343
0 343 0 -7 -42z"/>
<path d="M1737 3504 c-18 -18 15 -24 129 -24 104 0 124 2 124 15 0 13 -20 15
-123 15 -68 0 -127 -3 -130 -6z"/>
<path d="M2025 3500 c-3 -5 0 -13 9 -16 21 -8 71 -1 71 11 0 14 -72 19 -80 5z"/>
<path d="M1878 3124 c-56 -30 -64 -90 -19 -135 20 -20 39 -29 61 -29 22 0 41
9 61 29 46 46 37 106 -21 136 -36 18 -47 18 -82 -1z m79 -36 c21 -27 21 -47 2
-72 -11 -14 -29 -26 -39 -26 -24 0 -61 47 -53 68 11 31 25 42 53 42 15 0 32
-6 37 -12z"/>
<path d="M1797 2959 c-32 -19 -47 -65 -47 -144 l0 -75 170 0 170 0 0 78 c0 59
-5 85 -20 109 -24 40 -60 51 -92 29 -28 -20 -88 -21 -114 -1 -22 17 -42 18
-67 4z m123 -53 c27 0 58 7 73 17 23 15 26 15 42 -3 11 -12 19 -43 22 -85 l6
-65 -143 0 -143 0 6 65 c3 42 11 73 22 85 16 18 19 18 42 3 15 -10 46 -17 73
-17z"/>
<path d="M2474 3335 c10 -8 23 -16 29 -18 6 -2 6 -11 -2 -24 -11 -22 -16 -199
-5 -227 9 -23 109 -23 118 0 3 9 6 50 6 92 0 67 3 79 21 90 15 10 19 21 17 49
-2 30 -8 38 -32 46 -23 8 -32 6 -50 -13 -17 -19 -18 -22 -3 -17 9 4 17 2 17
-3 0 -6 -16 -10 -35 -10 -23 0 -35 5 -35 13 0 8 -11 19 -25 25 -35 16 -44 15
-21 -3z m156 -9 c0 -3 -4 -8 -10 -11 -5 -3 -10 -1 -10 4 0 6 5 11 10 11 6 0
10 -2 10 -4z m16 -33 c-10 -10 -19 5 -10 18 6 11 8 11 12 0 2 -7 1 -15 -2 -18z
m-116 -43 c5 0 7 7 4 15 -5 12 2 15 30 15 32 0 36 -3 36 -25 0 -23 -4 -25 -45
-25 -43 0 -45 1 -44 28 1 16 3 20 6 10 2 -10 8 -18 13 -18z m120 26 c0 -2 -7
-9 -15 -16 -12 -10 -15 -10 -15 4 0 9 7 16 15 16 8 0 15 -2 15 -4z m-120 -70
c0 -3 -4 -8 -10 -11 -5 -3 -10 -1 -10 4 0 6 5 11 10 11 6 0 10 -2 10 -4z m68
-68 l-3 -73 -42 -3 -43 -3 0 57 c0 48 2 55 14 44 8 -6 16 -21 18 -33 2 -14 11
-23 26 -25 18 -3 22 1 22 22 0 20 -5 26 -21 26 -18 0 -19 2 -9 15 10 12 10 18
0 30 -11 13 -8 15 14 15 l27 0 -3 -72z m-48 42 c0 -5 -4 -10 -10 -10 -5 0 -10
5 -10 10 0 6 5 10 10 10 6 0 10 -4 10 -10z m30 -54 c0 -3 -4 -8 -10 -11 -5 -3
-10 -1 -10 4 0 6 5 11 10 11 6 0 10 -2 10 -4z"/>
<path d="M2250 3268 c0 -24 7 -49 16 -60 14 -14 15 -26 7 -66 -13 -65 -2 -94
34 -90 28 3 28 3 25 74 -2 54 1 74 13 84 20 17 21 100 1 100 -8 0 -17 -12 -19
-27 l-4 -28 -2 28 c0 16 -7 27 -15 27 -8 0 -17 -12 -19 -27 l-4 -28 -2 28 c0
17 -7 27 -16 27 -11 0 -15 -11 -15 -42z m75 -18 c8 0 16 12 18 28 4 24 4 23 6
-7 0 -23 -6 -42 -19 -56 -18 -19 -19 -27 -9 -79 11 -62 4 -84 -26 -73 -13 6
-15 17 -9 71 5 53 4 68 -10 81 -9 9 -16 26 -15 38 0 12 3 16 6 10 9 -24 33
-14 34 15 l2 27 4 -27 c2 -16 10 -28 18 -28z"/>
<path d="M2372 3183 l3 -128 25 0 c22 0 25 5 28 40 2 22 8 44 13 50 5 5 9 32
9 61 0 57 -27 104 -61 104 -19 0 -19 -7 -17 -127z m64 31 c5 -39 3 -53 -10
-63 -10 -8 -16 -29 -16 -52 0 -22 -4 -39 -10 -39 -6 0 -10 47 -10 122 l0 122
20 -20 c13 -12 23 -39 26 -70z"/>
<path d="M986 2373 c-3 -15 -9 -81 -12 -145 -7 -116 -7 -118 14 -118 17 0 22
6 22 26 0 44 30 158 49 188 18 27 19 28 30 8 6 -11 13 -63 17 -116 8 -112 25
-124 37 -26 8 67 39 150 55 150 17 0 22 -29 22 -120 0 -140 25 -175 74 -103
21 31 26 34 32 19 11 -29 53 -39 82 -20 24 16 25 16 19 -5 -3 -11 -1 -21 4
-21 12 0 26 37 47 119 l16 65 14 -44 c15 -43 14 -44 -12 -62 -44 -33 -27 -88
28 -88 29 0 58 39 54 73 -2 24 1 33 15 35 13 3 17 -3 17 -23 0 -14 7 -41 14
-60 12 -28 20 -35 43 -35 15 1 38 9 51 20 22 18 29 44 48 178 3 20 10 32 17
29 8 -2 12 -35 12 -105 0 -81 3 -105 17 -118 24 -24 61 -11 84 31 17 33 34 46
34 27 0 -5 12 -14 26 -20 33 -16 55 -4 94 53 40 59 25 58 -25 -1 -36 -44 -39
-45 -52 -28 -20 28 -16 64 11 85 33 26 39 56 15 80 -15 15 -24 17 -38 10 -30
-17 -41 -37 -51 -94 -10 -61 -44 -137 -62 -137 -8 0 -9 32 -6 109 l6 110 -50
10 c-27 6 -51 11 -53 11 -2 0 -6 -30 -10 -67 -8 -77 -49 -183 -66 -166 -6 6
-9 58 -7 129 l3 119 52 5 c72 7 78 20 10 20 -50 0 -57 2 -57 20 0 26 -36 27
-45 1 -3 -11 -18 -24 -33 -30 -25 -9 -25 -9 -4 -10 20 -1 22 -6 22 -59 0 -90
-33 -110 -63 -38 -10 24 -27 52 -38 62 -25 22 -35 10 -45 -54 -4 -25 -20 -60
-41 -87 -37 -48 -47 -54 -57 -29 -13 33 -6 67 19 86 32 25 34 72 5 88 -17 9
-25 6 -50 -19 -25 -24 -30 -38 -30 -76 0 -48 -17 -92 -44 -114 -14 -12 -16 -1
-16 106 0 135 -9 160 -53 149 -14 -3 -34 -20 -44 -36 l-17 -30 -11 32 c-5 17
-18 36 -28 42 -15 9 -23 5 -47 -21 l-29 -32 2 42 c2 31 -2 42 -14 45 -11 2
-18 -6 -23 -25z m385 -136 c-13 -13 -15 11 -4 40 7 16 8 15 11 -6 2 -13 -1
-28 -7 -34z m619 40 c0 -15 -29 -57 -30 -42 0 6 3 20 6 33 7 24 24 31 24 9z
m-457 -129 c6 -21 -4 -48 -19 -48 -14 0 -20 41 -7 53 10 11 21 8 26 -5z"/>
<path d="M2264 2381 c-60 -36 -81 -147 -45 -227 20 -43 63 -84 90 -84 24 0 60
28 82 64 10 17 19 26 19 19 0 -21 29 -41 50 -36 12 3 29 22 40 42 l19 36 1
-56 c0 -66 19 -100 47 -83 10 6 22 27 27 46 l9 35 27 -31 c25 -27 30 -29 53
-19 14 7 34 27 43 44 14 28 18 30 26 16 12 -22 24 -21 45 3 17 20 18 19 33
-27 13 -40 19 -48 40 -48 20 0 31 11 57 60 17 33 29 63 26 68 -3 5 -19 -16
-36 -47 -16 -31 -33 -56 -36 -56 -4 0 -5 43 -3 95 l4 95 -36 0 c-57 0 -73 -14
-116 -100 -22 -43 -44 -81 -50 -85 -27 -17 -45 150 -19 182 11 13 15 12 30 -9
10 -12 21 -20 25 -16 11 12 -25 58 -45 58 -30 0 -71 -56 -72 -98 0 -20 -9 -59
-19 -87 l-18 -50 -1 103 c-1 89 -3 103 -17 100 -8 -2 -29 -35 -46 -75 -16 -40
-34 -73 -39 -73 -5 0 -9 39 -9 86 0 76 -2 85 -17 82 -14 -2 -19 -16 -23 -58
-7 -72 -55 -154 -93 -158 -21 -3 -29 3 -43 30 -22 41 -25 159 -5 206 17 40 53
44 77 7 21 -32 34 -32 34 -1 0 26 -42 66 -69 66 -9 0 -30 -9 -47 -19z m566
-121 c0 -16 -41 -100 -53 -107 -14 -9 1 66 19 95 15 23 34 30 34 12z"/>
<path d="M1640 1939 c0 -16 -4 -19 -19 -14 -24 7 -45 -26 -36 -55 5 -15 14
-20 36 -18 28 2 29 4 29 55 0 29 -2 53 -5 53 -3 0 -5 -9 -5 -21z m-3 -63 c-10
-25 -37 -19 -37 7 0 13 3 27 7 31 11 11 36 -21 30 -38z"/>
<path d="M2602 1905 c0 -33 2 -52 5 -42 6 21 19 22 27 2 3 -8 11 -15 17 -15 7
0 5 8 -6 20 -15 16 -15 22 -5 35 8 9 8 15 2 15 -6 0 -14 -6 -19 -12 -5 -9 -10
-1 -14 22 -5 27 -6 22 -7 -25z"/>
<path d="M1251 1898 c1 -29 4 -43 6 -31 2 13 13 24 26 26 l22 4 -22 2 c-16 1
-23 7 -23 20 0 12 8 21 23 24 19 4 18 4 -5 6 -27 1 -28 0 -27 -51z"/>
<path d="M2050 1935 c0 -8 -6 -12 -13 -9 -19 7 -39 -20 -35 -48 2 -17 11 -24
31 -26 26 -3 27 -2 27 47 0 28 -2 51 -5 51 -3 0 -5 -7 -5 -15z m0 -51 c0 -33
-33 -30 -38 4 -3 17 2 22 17 22 16 0 21 -6 21 -26z"/>
<path d="M2190 1900 c0 -48 1 -50 28 -50 35 0 52 16 52 50 0 34 -17 50 -52 50
-27 0 -28 -2 -28 -50z m64 18 c14 -23 -3 -52 -33 -56 -19 -3 -21 1 -21 38 0
37 2 41 21 38 12 -2 27 -11 33 -20z"/>
<path d="M1362 1918 c-32 -32 0 -84 37 -61 22 14 25 38 6 57 -20 19 -27 20
-43 4z m38 -34 c0 -33 -33 -30 -38 4 -3 17 2 22 17 22 16 0 21 -6 21 -26z"/>
<path d="M1482 1921 c-8 -5 -12 -21 -10 -37 2 -23 8 -29 28 -29 18 0 26 6 28
23 3 22 -13 52 -27 52 -3 0 -12 -4 -19 -9z m36 -33 c-5 -34 -38 -37 -38 -4 0
20 5 26 21 26 15 0 20 -5 17 -22z"/>
<path d="M1785 1919 c-4 -6 0 -9 10 -7 22 4 29 -41 8 -49 -20 -8 -30 6 -13 17
13 8 12 10 -2 10 -11 0 -18 -8 -18 -20 0 -16 6 -20 30 -18 27 2 30 6 30 34 0
20 -6 34 -16 38 -21 8 -22 8 -29 -5z"/>
<path d="M1898 1923 c-13 -3 -18 -15 -18 -39 0 -43 18 -45 22 -1 4 38 22 43
26 7 5 -38 22 -49 22 -14 0 27 -16 56 -29 53 -4 -1 -14 -3 -23 -6z"/>
<path d="M2338 1922 c-13 -2 -18 -13 -18 -38 0 -19 5 -34 10 -34 6 0 10 13 10
29 0 16 6 31 13 34 17 6 5 14 -15 9z"/>
<path d="M2498 1923 c-14 -3 -18 -14 -17 -41 2 -29 3 -31 6 -10 2 14 11 32 18
38 16 13 20 8 29 -40 2 -14 3 -7 3 14 -2 40 -9 47 -39 39z"/>
<path d="M2410 1885 c0 -19 5 -35 10 -35 6 0 10 16 10 35 0 19 -4 35 -10 35
-5 0 -10 -16 -10 -35z"/>
</g>
</svg>
